<mxfile host="app.diagrams.net" agent="Mozilla/5.0 (Windows NT 10.0; Win64; x64) AppleWebKit/537.36 (KHTML, like Gecko) Chrome/130.0.0.0 Safari/537.36" version="24.8.3" pages="2">
  <diagram name="sequence of sentiment" id="2YBvvXClWsGukQMizWep">
    <mxGraphModel dx="2150" dy="993" grid="1" gridSize="10" guides="1" tooltips="1" connect="1" arrows="1" fold="1" page="1" pageScale="1" pageWidth="850" pageHeight="1100" math="0" shadow="0">
      <root>
        <mxCell id="0" />
        <mxCell id="1" parent="0" />
        <mxCell id="oh9KAuAZV_wfPYhVKgF6-1" value="news aggregator" style="shape=umlLifeline;perimeter=lifelinePerimeter;whiteSpace=wrap;html=1;container=0;dropTarget=0;collapsible=0;recursiveResize=0;outlineConnect=0;portConstraint=eastwest;newEdgeStyle={&quot;edgeStyle&quot;:&quot;elbowEdgeStyle&quot;,&quot;elbow&quot;:&quot;vertical&quot;,&quot;curved&quot;:0,&quot;rounded&quot;:0};" vertex="1" parent="1">
          <mxGeometry x="190" y="50" width="100" height="300" as="geometry" />
        </mxCell>
        <mxCell id="oh9KAuAZV_wfPYhVKgF6-2" value="" style="html=1;points=[];perimeter=orthogonalPerimeter;outlineConnect=0;targetShapes=umlLifeline;portConstraint=eastwest;newEdgeStyle={&quot;edgeStyle&quot;:&quot;elbowEdgeStyle&quot;,&quot;elbow&quot;:&quot;vertical&quot;,&quot;curved&quot;:0,&quot;rounded&quot;:0};" vertex="1" parent="oh9KAuAZV_wfPYhVKgF6-1">
          <mxGeometry x="45" y="80" width="10" height="150" as="geometry" />
        </mxCell>
        <mxCell id="oh9KAuAZV_wfPYhVKgF6-3" value="logIn()" style="html=1;verticalAlign=bottom;endArrow=block;edgeStyle=elbowEdgeStyle;elbow=vertical;curved=0;rounded=0;" edge="1" parent="1" target="oh9KAuAZV_wfPYhVKgF6-2">
          <mxGeometry relative="1" as="geometry">
            <mxPoint x="100" y="140" as="sourcePoint" />
            <Array as="points">
              <mxPoint x="190" y="140" />
            </Array>
          </mxGeometry>
        </mxCell>
        <mxCell id="oh9KAuAZV_wfPYhVKgF6-4" value="Actor" style="shape=umlActor;verticalLabelPosition=bottom;verticalAlign=top;html=1;outlineConnect=0;" vertex="1" parent="1">
          <mxGeometry x="80" y="30" width="30" height="50" as="geometry" />
        </mxCell>
        <mxCell id="oh9KAuAZV_wfPYhVKgF6-5" value="" style="endArrow=none;dashed=1;html=1;rounded=0;" edge="1" parent="1">
          <mxGeometry width="50" height="50" relative="1" as="geometry">
            <mxPoint x="95" y="340" as="sourcePoint" />
            <mxPoint x="95" y="100" as="targetPoint" />
          </mxGeometry>
        </mxCell>
        <mxCell id="oh9KAuAZV_wfPYhVKgF6-6" value="sentments analysis server" style="shape=umlLifeline;perimeter=lifelinePerimeter;whiteSpace=wrap;html=1;container=0;dropTarget=0;collapsible=0;recursiveResize=0;outlineConnect=0;portConstraint=eastwest;newEdgeStyle={&quot;edgeStyle&quot;:&quot;elbowEdgeStyle&quot;,&quot;elbow&quot;:&quot;vertical&quot;,&quot;curved&quot;:0,&quot;rounded&quot;:0};" vertex="1" parent="1">
          <mxGeometry x="330" y="50" width="100" height="300" as="geometry" />
        </mxCell>
        <mxCell id="oh9KAuAZV_wfPYhVKgF6-7" value="" style="html=1;points=[];perimeter=orthogonalPerimeter;outlineConnect=0;targetShapes=umlLifeline;portConstraint=eastwest;newEdgeStyle={&quot;edgeStyle&quot;:&quot;elbowEdgeStyle&quot;,&quot;elbow&quot;:&quot;vertical&quot;,&quot;curved&quot;:0,&quot;rounded&quot;:0};" vertex="1" parent="oh9KAuAZV_wfPYhVKgF6-6">
          <mxGeometry x="45" y="140" width="10" height="20" as="geometry" />
        </mxCell>
        <mxCell id="oh9KAuAZV_wfPYhVKgF6-8" value="news api" style="shape=umlLifeline;perimeter=lifelinePerimeter;whiteSpace=wrap;html=1;container=0;dropTarget=0;collapsible=0;recursiveResize=0;outlineConnect=0;portConstraint=eastwest;newEdgeStyle={&quot;edgeStyle&quot;:&quot;elbowEdgeStyle&quot;,&quot;elbow&quot;:&quot;vertical&quot;,&quot;curved&quot;:0,&quot;rounded&quot;:0};" vertex="1" parent="1">
          <mxGeometry x="470" y="50" width="100" height="300" as="geometry" />
        </mxCell>
        <mxCell id="oh9KAuAZV_wfPYhVKgF6-9" value="" style="html=1;points=[];perimeter=orthogonalPerimeter;outlineConnect=0;targetShapes=umlLifeline;portConstraint=eastwest;newEdgeStyle={&quot;edgeStyle&quot;:&quot;elbowEdgeStyle&quot;,&quot;elbow&quot;:&quot;vertical&quot;,&quot;curved&quot;:0,&quot;rounded&quot;:0};" vertex="1" parent="oh9KAuAZV_wfPYhVKgF6-8">
          <mxGeometry x="45" y="170" width="10" height="40" as="geometry" />
        </mxCell>
        <mxCell id="oh9KAuAZV_wfPYhVKgF6-10" value="" style="html=1;points=[];perimeter=orthogonalPerimeter;outlineConnect=0;targetShapes=umlLifeline;portConstraint=eastwest;newEdgeStyle={&quot;edgeStyle&quot;:&quot;elbowEdgeStyle&quot;,&quot;elbow&quot;:&quot;vertical&quot;,&quot;curved&quot;:0,&quot;rounded&quot;:0};" vertex="1" parent="1">
          <mxGeometry x="90" y="130" width="10" height="60" as="geometry" />
        </mxCell>
        <mxCell id="oh9KAuAZV_wfPYhVKgF6-11" value="showArticles()" style="html=1;verticalAlign=bottom;endArrow=block;edgeStyle=elbowEdgeStyle;elbow=vertical;curved=0;rounded=0;" edge="1" parent="1">
          <mxGeometry x="-0.0027" relative="1" as="geometry">
            <mxPoint x="235" y="160" as="sourcePoint" />
            <Array as="points">
              <mxPoint x="155" y="160" />
            </Array>
            <mxPoint x="100" y="160" as="targetPoint" />
            <mxPoint as="offset" />
          </mxGeometry>
        </mxCell>
        <mxCell id="oh9KAuAZV_wfPYhVKgF6-12" value="select sentiment" style="html=1;verticalAlign=bottom;endArrow=block;edgeStyle=elbowEdgeStyle;elbow=vertical;curved=0;rounded=0;" edge="1" parent="1">
          <mxGeometry relative="1" as="geometry">
            <mxPoint x="100" y="180" as="sourcePoint" />
            <Array as="points">
              <mxPoint x="190" y="180" />
            </Array>
            <mxPoint x="235" y="180" as="targetPoint" />
          </mxGeometry>
        </mxCell>
        <mxCell id="oh9KAuAZV_wfPYhVKgF6-13" value="send sentment filter" style="html=1;verticalAlign=bottom;endArrow=block;edgeStyle=elbowEdgeStyle;elbow=vertical;curved=0;rounded=0;" edge="1" parent="1">
          <mxGeometry x="0.0008" relative="1" as="geometry">
            <mxPoint x="245" y="199.90081632653062" as="sourcePoint" />
            <Array as="points" />
            <mxPoint x="375" y="199.90081632653062" as="targetPoint" />
            <mxPoint as="offset" />
          </mxGeometry>
        </mxCell>
        <mxCell id="oh9KAuAZV_wfPYhVKgF6-14" value="request filtered news articles" style="html=1;verticalAlign=bottom;endArrow=block;edgeStyle=elbowEdgeStyle;elbow=vertical;curved=0;rounded=0;" edge="1" parent="1">
          <mxGeometry x="0.0008" relative="1" as="geometry">
            <mxPoint x="245" y="230.1911111111111" as="sourcePoint" />
            <Array as="points" />
            <mxPoint x="515.0000000000002" y="230.1911111111111" as="targetPoint" />
            <mxPoint as="offset" />
          </mxGeometry>
        </mxCell>
        <mxCell id="oh9KAuAZV_wfPYhVKgF6-15" value="return news articles" style="html=1;verticalAlign=bottom;endArrow=block;edgeStyle=elbowEdgeStyle;elbow=horizontal;curved=0;rounded=0;" edge="1" parent="1">
          <mxGeometry x="0.0008" relative="1" as="geometry">
            <mxPoint x="515" y="250.03000000000003" as="sourcePoint" />
            <Array as="points">
              <mxPoint x="510" y="250.03000000000003" />
            </Array>
            <mxPoint x="245" y="250.03000000000003" as="targetPoint" />
            <mxPoint as="offset" />
          </mxGeometry>
        </mxCell>
        <mxCell id="oh9KAuAZV_wfPYhVKgF6-16" value="" style="html=1;points=[];perimeter=orthogonalPerimeter;outlineConnect=0;targetShapes=umlLifeline;portConstraint=eastwest;newEdgeStyle={&quot;edgeStyle&quot;:&quot;elbowEdgeStyle&quot;,&quot;elbow&quot;:&quot;vertical&quot;,&quot;curved&quot;:0,&quot;rounded&quot;:0};" vertex="1" parent="1">
          <mxGeometry x="90" y="260" width="10" height="20" as="geometry" />
        </mxCell>
        <mxCell id="oh9KAuAZV_wfPYhVKgF6-17" value="show new Articles" style="html=1;verticalAlign=bottom;endArrow=block;edgeStyle=elbowEdgeStyle;elbow=vertical;curved=0;rounded=0;" edge="1" parent="1">
          <mxGeometry x="-0.0027" relative="1" as="geometry">
            <mxPoint x="235" y="270" as="sourcePoint" />
            <Array as="points">
              <mxPoint x="155" y="270" />
            </Array>
            <mxPoint x="100" y="270" as="targetPoint" />
            <mxPoint as="offset" />
          </mxGeometry>
        </mxCell>
      </root>
    </mxGraphModel>
  </diagram>
  <diagram id="E2woDbEMIcm68LNO7VQ6" name="main sequence  ">
    <mxGraphModel dx="1290" dy="596" grid="1" gridSize="10" guides="1" tooltips="1" connect="1" arrows="1" fold="1" page="1" pageScale="1" pageWidth="850" pageHeight="1100" math="0" shadow="0">
      <root>
        <mxCell id="0" />
        <mxCell id="1" parent="0" />
        <mxCell id="MzgxfJq2pjAyC1W4PliY-1" value="news aggregator" style="shape=umlLifeline;perimeter=lifelinePerimeter;whiteSpace=wrap;html=1;container=0;dropTarget=0;collapsible=0;recursiveResize=0;outlineConnect=0;portConstraint=eastwest;newEdgeStyle={&quot;edgeStyle&quot;:&quot;elbowEdgeStyle&quot;,&quot;elbow&quot;:&quot;vertical&quot;,&quot;curved&quot;:0,&quot;rounded&quot;:0};" vertex="1" parent="1">
          <mxGeometry x="180" y="40" width="100" height="300" as="geometry" />
        </mxCell>
        <mxCell id="MzgxfJq2pjAyC1W4PliY-2" value="" style="html=1;points=[];perimeter=orthogonalPerimeter;outlineConnect=0;targetShapes=umlLifeline;portConstraint=eastwest;newEdgeStyle={&quot;edgeStyle&quot;:&quot;elbowEdgeStyle&quot;,&quot;elbow&quot;:&quot;vertical&quot;,&quot;curved&quot;:0,&quot;rounded&quot;:0};" vertex="1" parent="MzgxfJq2pjAyC1W4PliY-1">
          <mxGeometry x="45" y="80" width="10" height="140" as="geometry" />
        </mxCell>
        <mxCell id="MzgxfJq2pjAyC1W4PliY-3" value="logIn()" style="html=1;verticalAlign=bottom;endArrow=block;edgeStyle=elbowEdgeStyle;elbow=vertical;curved=0;rounded=0;" edge="1" parent="1" target="MzgxfJq2pjAyC1W4PliY-2">
          <mxGeometry relative="1" as="geometry">
            <mxPoint x="90" y="130" as="sourcePoint" />
            <Array as="points">
              <mxPoint x="180" y="130" />
            </Array>
          </mxGeometry>
        </mxCell>
        <mxCell id="MzgxfJq2pjAyC1W4PliY-4" value="request prefrences" style="html=1;verticalAlign=bottom;endArrow=block;edgeStyle=elbowEdgeStyle;elbow=vertical;curved=0;rounded=0;" edge="1" parent="1" target="MzgxfJq2pjAyC1W4PliY-8">
          <mxGeometry x="0.0008" relative="1" as="geometry">
            <mxPoint x="235" y="150.00111111111107" as="sourcePoint" />
            <Array as="points" />
            <mxPoint x="505.0000000000002" y="150.00111111111107" as="targetPoint" />
            <mxPoint as="offset" />
          </mxGeometry>
        </mxCell>
        <mxCell id="MzgxfJq2pjAyC1W4PliY-5" value="Actor" style="shape=umlActor;verticalLabelPosition=bottom;verticalAlign=top;html=1;outlineConnect=0;" vertex="1" parent="1">
          <mxGeometry x="70" y="20" width="30" height="50" as="geometry" />
        </mxCell>
        <mxCell id="MzgxfJq2pjAyC1W4PliY-6" value="" style="endArrow=none;dashed=1;html=1;rounded=0;" edge="1" parent="1">
          <mxGeometry width="50" height="50" relative="1" as="geometry">
            <mxPoint x="85" y="330" as="sourcePoint" />
            <mxPoint x="85" y="90" as="targetPoint" />
          </mxGeometry>
        </mxCell>
        <mxCell id="MzgxfJq2pjAyC1W4PliY-7" value="userPreferences server" style="shape=umlLifeline;perimeter=lifelinePerimeter;whiteSpace=wrap;html=1;container=0;dropTarget=0;collapsible=0;recursiveResize=0;outlineConnect=0;portConstraint=eastwest;newEdgeStyle={&quot;edgeStyle&quot;:&quot;elbowEdgeStyle&quot;,&quot;elbow&quot;:&quot;vertical&quot;,&quot;curved&quot;:0,&quot;rounded&quot;:0};" vertex="1" parent="1">
          <mxGeometry x="320" y="40" width="100" height="300" as="geometry" />
        </mxCell>
        <mxCell id="MzgxfJq2pjAyC1W4PliY-8" value="" style="html=1;points=[];perimeter=orthogonalPerimeter;outlineConnect=0;targetShapes=umlLifeline;portConstraint=eastwest;newEdgeStyle={&quot;edgeStyle&quot;:&quot;elbowEdgeStyle&quot;,&quot;elbow&quot;:&quot;vertical&quot;,&quot;curved&quot;:0,&quot;rounded&quot;:0};" vertex="1" parent="MzgxfJq2pjAyC1W4PliY-7">
          <mxGeometry x="45" y="100" width="10" height="40" as="geometry" />
        </mxCell>
        <mxCell id="MzgxfJq2pjAyC1W4PliY-9" value="news api" style="shape=umlLifeline;perimeter=lifelinePerimeter;whiteSpace=wrap;html=1;container=0;dropTarget=0;collapsible=0;recursiveResize=0;outlineConnect=0;portConstraint=eastwest;newEdgeStyle={&quot;edgeStyle&quot;:&quot;elbowEdgeStyle&quot;,&quot;elbow&quot;:&quot;vertical&quot;,&quot;curved&quot;:0,&quot;rounded&quot;:0};" vertex="1" parent="1">
          <mxGeometry x="460" y="40" width="100" height="300" as="geometry" />
        </mxCell>
        <mxCell id="MzgxfJq2pjAyC1W4PliY-10" value="" style="html=1;points=[];perimeter=orthogonalPerimeter;outlineConnect=0;targetShapes=umlLifeline;portConstraint=eastwest;newEdgeStyle={&quot;edgeStyle&quot;:&quot;elbowEdgeStyle&quot;,&quot;elbow&quot;:&quot;vertical&quot;,&quot;curved&quot;:0,&quot;rounded&quot;:0};" vertex="1" parent="MzgxfJq2pjAyC1W4PliY-9">
          <mxGeometry x="45" y="150" width="10" height="40" as="geometry" />
        </mxCell>
        <mxCell id="MzgxfJq2pjAyC1W4PliY-11" value="return prefrences" style="html=1;verticalAlign=bottom;endArrow=block;edgeStyle=elbowEdgeStyle;elbow=vertical;curved=0;rounded=0;" edge="1" parent="1" source="MzgxfJq2pjAyC1W4PliY-8" target="MzgxfJq2pjAyC1W4PliY-2">
          <mxGeometry relative="1" as="geometry">
            <mxPoint x="359.5" y="170" as="sourcePoint" />
            <Array as="points">
              <mxPoint x="290" y="170" />
            </Array>
            <mxPoint x="240" y="170" as="targetPoint" />
          </mxGeometry>
        </mxCell>
        <mxCell id="MzgxfJq2pjAyC1W4PliY-12" value="request news articles" style="html=1;verticalAlign=bottom;endArrow=block;edgeStyle=elbowEdgeStyle;elbow=vertical;curved=0;rounded=0;" edge="1" parent="1">
          <mxGeometry x="0.0008" relative="1" as="geometry">
            <mxPoint x="235" y="200.1611111111111" as="sourcePoint" />
            <Array as="points" />
            <mxPoint x="505.0000000000002" y="200.1611111111111" as="targetPoint" />
            <mxPoint as="offset" />
          </mxGeometry>
        </mxCell>
        <mxCell id="MzgxfJq2pjAyC1W4PliY-13" value="" style="html=1;points=[];perimeter=orthogonalPerimeter;outlineConnect=0;targetShapes=umlLifeline;portConstraint=eastwest;newEdgeStyle={&quot;edgeStyle&quot;:&quot;elbowEdgeStyle&quot;,&quot;elbow&quot;:&quot;vertical&quot;,&quot;curved&quot;:0,&quot;rounded&quot;:0};" vertex="1" parent="1">
          <mxGeometry x="80" y="120" width="10" height="20" as="geometry" />
        </mxCell>
        <mxCell id="MzgxfJq2pjAyC1W4PliY-14" value="" style="html=1;points=[];perimeter=orthogonalPerimeter;outlineConnect=0;targetShapes=umlLifeline;portConstraint=eastwest;newEdgeStyle={&quot;edgeStyle&quot;:&quot;elbowEdgeStyle&quot;,&quot;elbow&quot;:&quot;vertical&quot;,&quot;curved&quot;:0,&quot;rounded&quot;:0};" vertex="1" parent="1">
          <mxGeometry x="80" y="220" width="10" height="20" as="geometry" />
        </mxCell>
        <mxCell id="MzgxfJq2pjAyC1W4PliY-15" value="return news articles" style="html=1;verticalAlign=bottom;endArrow=block;edgeStyle=elbowEdgeStyle;elbow=horizontal;curved=0;rounded=0;" edge="1" parent="1">
          <mxGeometry x="0.0008" relative="1" as="geometry">
            <mxPoint x="505" y="220" as="sourcePoint" />
            <Array as="points">
              <mxPoint x="500" y="220" />
            </Array>
            <mxPoint x="235" y="220" as="targetPoint" />
            <mxPoint as="offset" />
          </mxGeometry>
        </mxCell>
        <mxCell id="MzgxfJq2pjAyC1W4PliY-16" value="show articles" style="html=1;verticalAlign=bottom;endArrow=block;edgeStyle=elbowEdgeStyle;elbow=vertical;curved=0;rounded=0;" edge="1" parent="1" source="MzgxfJq2pjAyC1W4PliY-2">
          <mxGeometry relative="1" as="geometry">
            <mxPoint x="220" y="229.52" as="sourcePoint" />
            <Array as="points">
              <mxPoint x="145" y="229.52" />
            </Array>
            <mxPoint x="90" y="229.52" as="targetPoint" />
          </mxGeometry>
        </mxCell>
      </root>
    </mxGraphModel>
  </diagram>
</mxfile>
